<svg width="26" height="22" viewBox="0 0 26 22" fill="none" xmlns="http://www.w3.org/2000/svg">
<path d="M1 4.33335C1 3.62611 1.28095 2.94783 1.78105 2.44774C2.28115 1.94764 2.95942 1.66669 3.66667 1.66669H22.3333C23.0406 1.66669 23.7189 1.94764 24.219 2.44774C24.719 2.94783 25 3.62611 25 4.33335M1 4.33335V17.6667C1 18.3739 1.28095 19.0522 1.78105 19.5523C2.28115 20.0524 2.95942 20.3334 3.66667 20.3334H22.3333C23.0406 20.3334 23.7189 20.0524 24.219 19.5523C24.719 19.0522 25 18.3739 25 17.6667V4.33335M1 4.33335L13 12.3334L25 4.33335" stroke="white" stroke-width="2" stroke-linecap="round" stroke-linejoin="round"/>
</svg>
