<svg width="24" height="27" viewBox="0 0 24 27" fill="none" xmlns="http://www.w3.org/2000/svg">
<path d="M7.99967 11.6666C7.99967 12.7275 8.4211 13.7449 9.17125 14.4951C9.92139 15.2452 10.9388 15.6666 11.9997 15.6666C13.0605 15.6666 14.078 15.2452 14.8281 14.4951C15.5782 13.7449 15.9997 12.7275 15.9997 11.6666C15.9997 10.6058 15.5782 9.58836 14.8281 8.83822C14.078 8.08807 13.0605 7.66665 11.9997 7.66665C10.9388 7.66665 9.92139 8.08807 9.17125 8.83822C8.4211 9.58836 7.99967 10.6058 7.99967 11.6666Z" stroke="#011432" stroke-width="2" stroke-linecap="round" stroke-linejoin="round"/>
<path d="M19.5423 19.2093L13.885 24.8666C13.385 25.3662 12.7071 25.6467 12.0003 25.6467C11.2936 25.6467 10.6157 25.3662 10.1157 24.8666L4.45701 19.2093C2.96531 17.7175 1.94946 15.8169 1.53793 13.7478C1.1264 11.6787 1.33767 9.534 2.14502 7.58495C2.95237 5.6359 4.31954 3.97003 6.07365 2.79799C7.82777 1.62594 9.89004 1.00037 11.9997 1.00037C14.1093 1.00037 16.1716 1.62594 17.9257 2.79799C19.6798 3.97003 21.047 5.6359 21.8543 7.58495C22.6617 9.534 22.873 11.6787 22.4614 13.7478C22.0499 15.8169 21.0341 17.7175 19.5423 19.2093Z" stroke="#011432" stroke-width="2" stroke-linecap="round" stroke-linejoin="round"/>
</svg>
