<svg width="24" height="24" viewBox="0 0 24 24" fill="none" xmlns="http://www.w3.org/2000/svg">
<path d="M1.33301 16C1.33301 15.2928 1.61396 14.6145 2.11406 14.1144C2.61415 13.6143 3.29243 13.3333 3.99967 13.3333H5.33301C6.04025 13.3333 6.71853 13.6143 7.21863 14.1144C7.71872 14.6145 7.99967 15.2928 7.99967 16V20C7.99967 20.7073 7.71872 21.3855 7.21863 21.8856C6.71853 22.3857 6.04025 22.6667 5.33301 22.6667H3.99967C3.29243 22.6667 2.61415 22.3857 2.11406 21.8856C1.61396 21.3855 1.33301 20.7073 1.33301 20V16ZM1.33301 16V12C1.33301 9.17103 2.45681 6.45793 4.4572 4.45754C6.45759 2.45715 9.1707 1.33334 11.9997 1.33334C14.8286 1.33334 17.5418 2.45715 19.5421 4.45754C21.5425 6.45793 22.6663 9.17103 22.6663 12V16M22.6663 16C22.6663 15.2928 22.3854 14.6145 21.8853 14.1144C21.3852 13.6143 20.7069 13.3333 19.9997 13.3333H18.6663C17.9591 13.3333 17.2808 13.6143 16.7807 14.1144C16.2806 14.6145 15.9997 15.2928 15.9997 16V20C15.9997 20.7073 16.2806 21.3855 16.7807 21.8856C17.2808 22.3857 17.9591 22.6667 18.6663 22.6667H19.9997C20.7069 22.6667 21.3852 22.3857 21.8853 21.8856C22.3854 21.3855 22.6663 20.7073 22.6663 20V16Z" stroke="white" stroke-width="2" stroke-linecap="round" stroke-linejoin="round"/>
</svg>
