<svg width="169" height="48" viewBox="0 0 169 48" fill="none" xmlns="http://www.w3.org/2000/svg">
<path d="M30.6966 24C30.6966 27.7114 27.6904 30.72 23.9821 30.72C20.2738 30.72 17.2676 27.7114 17.2676 24C17.2676 20.2886 20.2738 17.28 23.9821 17.28C27.6904 17.28 30.6966 20.2886 30.6966 24Z" fill="#FFCC00"/>
<path d="M38.3687 24C38.3687 31.9529 31.9269 38.4 23.9804 38.4C21.4225 38.4 19.0204 37.732 16.939 36.5607L10.1098 43.5802C14.0254 46.3636 18.812 48 23.9804 48C37.2245 48 47.9609 37.2548 47.9609 24C47.9609 10.7452 37.2245 0 23.9804 0C10.7364 0 0 10.7452 0 24C0 29.3103 1.72324 34.2178 4.64058 38.1928L11.4899 31.1527C10.2825 29.0454 9.59217 26.6034 9.59217 24C9.59217 16.0471 16.034 9.6 23.9804 9.6C31.9269 9.6 38.3687 16.0471 38.3687 24Z" fill="#003193"/>
<path d="M31.0225 36.5607C28.941 37.732 26.539 38.4 23.981 38.4C21.4231 38.4 19.021 37.732 16.9395 36.5607L10.1104 43.5802C14.026 46.3636 18.8125 48 23.981 48C29.1495 48 33.9361 46.3636 37.8517 43.5802L31.0225 36.5607Z" fill="#FFCC00"/>
<path d="M18.7715 22.8289L21.9906 25.1711L20.7609 28.961L23.9802 26.6187L27.1994 28.961L25.9697 25.1711L29.1888 22.8289H25.2098L23.9801 19.039L22.7505 22.8289H18.7715Z" fill="white"/>
<path d="M129.998 6.77904H132.549C132.998 6.77904 133.366 6.67203 133.655 6.45802C133.944 6.244 134.088 5.89622 134.088 5.41468C134.088 5.14716 134.04 4.9278 133.944 4.75658C133.848 4.58537 133.719 4.45161 133.559 4.3553C133.399 4.25899 133.211 4.19479 132.998 4.16269C132.794 4.11988 132.581 4.09848 132.356 4.09848H129.998V6.77904ZM127.48 2.14023H132.869C133.415 2.14023 133.912 2.18838 134.361 2.28469C134.81 2.381 135.195 2.54151 135.516 2.76623C135.836 2.98024 136.082 3.26917 136.253 3.633C136.435 3.99682 136.526 4.44626 136.526 4.9813C136.526 5.55915 136.392 6.04068 136.125 6.42591C135.868 6.81114 135.484 7.12682 134.97 7.37294C135.676 7.57625 136.2 7.93473 136.542 8.44837C136.895 8.95131 137.071 9.56126 137.071 10.2782C137.071 10.8561 136.959 11.359 136.734 11.787C136.51 12.2044 136.205 12.5468 135.82 12.8143C135.446 13.0818 135.013 13.2798 134.521 13.4082C134.04 13.5366 133.543 13.6008 133.03 13.6008H127.48V2.14023ZM129.998 11.6426H132.693C132.939 11.6426 133.174 11.6212 133.399 11.5784C133.623 11.5249 133.821 11.4446 133.992 11.3376C134.163 11.2199 134.297 11.0647 134.393 10.8721C134.5 10.6795 134.553 10.4334 134.553 10.1338C134.553 9.54521 134.388 9.12788 134.056 8.88176C133.725 8.62494 133.286 8.49653 132.741 8.49653H129.998V11.6426Z" fill="#001641"/>
<path d="M117.018 7.91869C117.018 8.40023 117.071 8.87107 117.178 9.3312C117.296 9.78064 117.478 10.1873 117.724 10.5511C117.97 10.9149 118.29 11.2092 118.686 11.4339C119.082 11.6479 119.563 11.7549 120.129 11.7549C120.696 11.7549 121.177 11.6479 121.573 11.4339C121.968 11.2092 122.289 10.9149 122.535 10.5511C122.781 10.1873 122.957 9.78064 123.064 9.3312C123.182 8.87107 123.241 8.40023 123.241 7.91869C123.241 7.41575 123.182 6.92887 123.064 6.45803C122.957 5.98719 122.781 5.56986 122.535 5.20603C122.289 4.8315 121.968 4.53723 121.573 4.32321C121.177 4.09849 120.696 3.98614 120.129 3.98614C119.563 3.98614 119.082 4.09849 118.686 4.32321C118.29 4.53723 117.97 4.8315 117.724 5.20603C117.478 5.56986 117.296 5.98719 117.178 6.45803C117.071 6.92887 117.018 7.41575 117.018 7.91869ZM114.5 7.91869C114.5 7.06263 114.628 6.27076 114.885 5.54311C115.142 4.80475 115.51 4.1627 115.992 3.61696C116.473 3.07121 117.061 2.64318 117.756 2.33286C118.461 2.02253 119.253 1.86737 120.129 1.86737C121.017 1.86737 121.808 2.02253 122.503 2.33286C123.198 2.64318 123.786 3.07121 124.267 3.61696C124.748 4.1627 125.117 4.80475 125.374 5.54311C125.63 6.27076 125.759 7.06263 125.759 7.91869C125.759 8.75336 125.63 9.53452 125.374 10.2622C125.117 10.9791 124.748 11.6051 124.267 12.1402C123.786 12.6752 123.198 13.0979 122.503 13.4082C121.808 13.7078 121.017 13.8577 120.129 13.8577C119.253 13.8577 118.461 13.7078 117.756 13.4082C117.061 13.0979 116.473 12.6752 115.992 12.1402C115.51 11.6051 115.142 10.9791 114.885 10.2622C114.628 9.53452 114.5 8.75336 114.5 7.91869Z" fill="#001641"/>
<path d="M112.789 9.98929C112.789 10.3638 112.752 10.7758 112.677 11.2252C112.602 11.6747 112.431 12.0974 112.164 12.4933C111.896 12.8785 111.511 13.2049 111.009 13.4724C110.506 13.7292 109.827 13.8576 108.972 13.8576C108.491 13.8576 108.026 13.7881 107.577 13.649C107.128 13.5206 106.727 13.3173 106.374 13.039C106.021 12.7501 105.738 12.3863 105.524 11.9475C105.31 11.4981 105.203 10.9577 105.203 10.3264V9.33119H107.481V9.84483C107.481 10.1231 107.502 10.3799 107.545 10.6153C107.587 10.8507 107.662 11.054 107.769 11.2252C107.876 11.3858 108.02 11.5142 108.202 11.6105C108.395 11.7068 108.641 11.7549 108.94 11.7549C109.271 11.7549 109.528 11.6961 109.71 11.5784C109.892 11.4607 110.02 11.3108 110.095 11.1289C110.18 10.9363 110.228 10.733 110.239 10.519C110.26 10.2943 110.271 10.0802 110.271 9.87693V2.14023H112.789V9.98929Z" fill="#001641"/>
<path d="M95.6235 7.91869C95.6235 8.40023 95.6769 8.87107 95.7838 9.3312C95.9015 9.78064 96.0832 10.1873 96.3291 10.5511C96.5751 10.9149 96.8958 11.2092 97.2914 11.4339C97.687 11.6479 98.1682 11.7549 98.7349 11.7549C99.3015 11.7549 99.7827 11.6479 100.178 11.4339C100.574 11.2092 100.895 10.9149 101.141 10.5511C101.387 10.1873 101.563 9.78064 101.67 9.3312C101.787 8.87107 101.846 8.40023 101.846 7.91869C101.846 7.41575 101.787 6.92887 101.67 6.45803C101.563 5.98719 101.387 5.56986 101.141 5.20603C100.895 4.8315 100.574 4.53723 100.178 4.32321C99.7827 4.09849 99.3015 3.98614 98.7349 3.98614C98.1682 3.98614 97.687 4.09849 97.2914 4.32321C96.8958 4.53723 96.5751 4.8315 96.3291 5.20603C96.0832 5.56986 95.9015 5.98719 95.7838 6.45803C95.6769 6.92887 95.6235 7.41575 95.6235 7.91869ZM93.1055 7.91869C93.1055 7.06263 93.2338 6.27076 93.4904 5.54311C93.747 4.80475 94.1159 4.1627 94.597 3.61696C95.0782 3.07121 95.6662 2.64318 96.3612 2.33286C97.0669 2.02253 97.8581 1.86737 98.7349 1.86737C99.6223 1.86737 100.414 2.02253 101.109 2.33286C101.804 2.64318 102.392 3.07121 102.873 3.61696C103.354 4.1627 103.723 4.80475 103.979 5.54311C104.236 6.27076 104.364 7.06263 104.364 7.91869C104.364 8.75336 104.236 9.53452 103.979 10.2622C103.723 10.9791 103.354 11.6051 102.873 12.1402C102.392 12.6752 101.804 13.0979 101.109 13.4082C100.414 13.7078 99.6223 13.8577 98.7349 13.8577C97.8581 13.8577 97.0669 13.7078 96.3612 13.4082C95.6662 13.0979 95.0782 12.6752 94.597 12.1402C94.1159 11.6051 93.747 10.9791 93.4904 10.2622C93.2338 9.53452 93.1055 8.75336 93.1055 7.91869Z" fill="#001641"/>
<path d="M84.5463 7.32478H87.3049C87.8823 7.32478 88.3153 7.19637 88.604 6.93955C88.8927 6.68273 89.037 6.2654 89.037 5.68756C89.037 5.13111 88.8927 4.72983 88.604 4.48371C88.3153 4.22689 87.8823 4.09848 87.3049 4.09848H84.5463V7.32478ZM82.0283 2.14023H88.203C88.7162 2.14023 89.176 2.22584 89.5823 2.39705C89.9993 2.55756 90.3521 2.78228 90.6408 3.0712C90.9402 3.36012 91.1647 3.6972 91.3144 4.08243C91.4748 4.45696 91.555 4.86359 91.555 5.30233C91.555 5.97648 91.4107 6.55967 91.122 7.05191C90.844 7.54415 90.3842 7.91868 89.7427 8.1755V8.2076C90.0528 8.29321 90.3094 8.42697 90.5125 8.60888C90.7157 8.7801 90.8814 8.98876 91.0097 9.23488C91.138 9.4703 91.2289 9.73247 91.2823 10.0214C91.3465 10.3103 91.3893 10.5992 91.4107 10.8882C91.4213 11.0701 91.432 11.2841 91.4427 11.5302C91.4534 11.7763 91.4695 12.0278 91.4908 12.2846C91.5229 12.5414 91.5657 12.7876 91.6191 13.023C91.6833 13.2477 91.7742 13.4403 91.8918 13.6008H89.3738C89.2348 13.237 89.1493 12.8036 89.1172 12.3007C89.0851 11.7977 89.037 11.3162 88.9728 10.8561C88.8873 10.2568 88.7055 9.81808 88.4276 9.53986C88.1496 9.26164 87.6951 9.12252 87.0643 9.12252H84.5463V13.6008H82.0283V2.14023Z" fill="#001641"/>
<path d="M79.859 9.26699C79.859 10.8186 79.426 11.9743 78.5599 12.7341C77.6939 13.4831 76.4964 13.8576 74.9674 13.8576C73.417 13.8576 72.2142 13.4831 71.3588 12.7341C70.5141 11.985 70.0918 10.8293 70.0918 9.26699V2.14023H72.6098V9.26699C72.6098 9.57731 72.6365 9.88228 72.69 10.1819C72.7434 10.4815 72.8557 10.7491 73.0268 10.9845C73.1979 11.2092 73.4331 11.3965 73.7325 11.5463C74.0425 11.6854 74.4542 11.7549 74.9674 11.7549C75.8655 11.7549 76.4857 11.557 76.8278 11.161C77.17 10.7544 77.341 10.1231 77.341 9.26699V2.14023H79.859V9.26699Z" fill="#001641"/>
<path d="M59.7412 2.14023H68.3056V4.25899H62.2592V6.71484H67.8084V8.67309H62.2592V11.4821H68.4339V13.6008H59.7412V2.14023Z" fill="#001641"/>
<path d="M161.532 30.9721C161.083 31.5499 160.585 31.9566 160.04 32.192C159.495 32.4167 158.944 32.5291 158.388 32.5291C157.511 32.5291 156.72 32.3792 156.015 32.0796C155.32 31.7693 154.731 31.3466 154.25 30.8116C153.769 30.2765 153.4 29.6505 153.144 28.9336C152.887 28.2059 152.759 27.4248 152.759 26.5901C152.759 25.734 152.887 24.9422 153.144 24.2145C153.4 23.4762 153.769 22.8341 154.25 22.2884C154.731 21.7426 155.32 21.3146 156.015 21.0043C156.72 20.6939 157.511 20.5388 158.388 20.5388C158.976 20.5388 159.543 20.6297 160.088 20.8116C160.644 20.9829 161.141 21.2397 161.58 21.5821C162.029 21.9245 162.398 22.3472 162.686 22.8502C162.975 23.3531 163.152 23.9309 163.216 24.5837H160.81C160.66 23.9416 160.372 23.4601 159.944 23.1391C159.516 22.8181 158.998 22.6575 158.388 22.6575C157.822 22.6575 157.34 22.7699 156.945 22.9946C156.549 23.2086 156.228 23.5029 155.982 23.8774C155.737 24.2413 155.555 24.6586 155.437 25.1294C155.33 25.6003 155.277 26.0872 155.277 26.5901C155.277 27.0716 155.33 27.5425 155.437 28.0026C155.555 28.452 155.737 28.8587 155.982 29.2225C156.228 29.5863 156.549 29.8806 156.945 30.1053C157.34 30.3193 157.822 30.4263 158.388 30.4263C159.222 30.4263 159.864 30.2177 160.313 29.8003C160.773 29.3723 161.04 28.757 161.115 27.9545H158.581V26.0765H163.392V32.2722H161.788L161.532 30.9721Z" fill="#001641"/>
<path d="M141.369 20.8116H143.871L148.65 28.5002H148.683V20.8116H151.04V32.2722H148.522L143.759 24.5997H143.727V32.2722H141.369V20.8116Z" fill="#001641"/>
<path d="M136.64 20.8116H139.158V32.2722H136.64V20.8116Z" fill="#001641"/>
<path d="M129.369 22.9304H125.937V20.8116H135.319V22.9304H131.887V32.2722H129.369V22.9304Z" fill="#001641"/>
<path d="M118.799 20.8116H121.317V30.1535H126.898V32.2722H118.799V20.8116Z" fill="#001641"/>
<path d="M116.632 27.9384C116.632 29.49 116.198 30.6457 115.332 31.4055C114.466 32.1545 113.269 32.5291 111.74 32.5291C110.19 32.5291 108.987 32.1545 108.131 31.4055C107.287 30.6564 106.864 29.5007 106.864 27.9384V20.8116H109.382V27.9384C109.382 28.2487 109.409 28.5537 109.462 28.8533C109.516 29.153 109.628 29.4205 109.799 29.6559C109.97 29.8806 110.206 30.0679 110.505 30.2177C110.815 30.3568 111.227 30.4263 111.74 30.4263C112.638 30.4263 113.258 30.2284 113.6 29.8325C113.942 29.4258 114.114 28.7945 114.114 27.9384V20.8116H116.632V27.9384Z" fill="#001641"/>
<path d="M98.2119 28.4681C98.2119 28.8533 98.2814 29.1797 98.4204 29.4472C98.5594 29.7147 98.7411 29.9341 98.9657 30.1053C99.2009 30.2658 99.4735 30.3889 99.7836 30.4745C100.094 30.5494 100.414 30.5869 100.746 30.5869C100.97 30.5869 101.211 30.5708 101.468 30.5387C101.724 30.4959 101.965 30.421 102.189 30.314C102.414 30.207 102.601 30.0625 102.751 29.8806C102.9 29.688 102.975 29.4472 102.975 29.1583C102.975 28.848 102.874 28.5965 102.67 28.4039C102.478 28.2113 102.221 28.0508 101.901 27.9223C101.58 27.7939 101.216 27.6816 100.81 27.5853C100.404 27.489 99.9921 27.382 99.5751 27.2642C99.1474 27.1572 98.7304 27.0288 98.3241 26.879C97.9178 26.7185 97.5543 26.5152 97.2335 26.2691C96.9128 26.023 96.6508 25.718 96.4477 25.3542C96.2552 24.9796 96.159 24.5302 96.159 24.0058C96.159 23.4173 96.2819 22.909 96.5279 22.481C96.7845 22.0422 97.1159 21.6784 97.5222 21.3895C97.9285 21.1006 98.3883 20.8865 98.9015 20.7474C99.4147 20.6083 99.9279 20.5388 100.441 20.5388C101.04 20.5388 101.612 20.6083 102.157 20.7474C102.713 20.8758 103.205 21.0899 103.633 21.3895C104.06 21.6891 104.397 22.0743 104.643 22.5452C104.9 23.0053 105.028 23.5671 105.028 24.2306H102.59C102.569 23.8881 102.494 23.6046 102.366 23.3798C102.248 23.1551 102.088 22.9786 101.885 22.8502C101.681 22.7217 101.446 22.6308 101.179 22.5773C100.922 22.5238 100.639 22.497 100.329 22.497C100.126 22.497 99.9226 22.5184 99.7194 22.5612C99.5163 22.604 99.3292 22.6789 99.1581 22.7859C98.9977 22.893 98.8641 23.0267 98.7572 23.1872C98.6502 23.3477 98.5968 23.5511 98.5968 23.7972C98.5968 24.0219 98.6395 24.2038 98.7251 24.3429C98.8106 24.482 98.9763 24.6104 99.2223 24.7282C99.4789 24.8459 99.8264 24.9636 100.265 25.0813C100.714 25.199 101.297 25.3488 102.013 25.5307C102.227 25.5735 102.521 25.6538 102.895 25.7715C103.28 25.8785 103.659 26.0551 104.034 26.3012C104.408 26.5473 104.729 26.879 104.996 27.2964C105.274 27.703 105.413 28.2273 105.413 28.8694C105.413 29.3937 105.311 29.8806 105.108 30.33C104.905 30.7795 104.6 31.1701 104.194 31.5018C103.798 31.8228 103.301 32.0743 102.703 32.2562C102.114 32.4381 101.43 32.5291 100.65 32.5291C100.019 32.5291 99.404 32.4488 98.8053 32.2883C98.2172 32.1385 97.6933 31.8977 97.2335 31.566C96.7845 31.2343 96.4263 30.8116 96.159 30.2979C95.8917 29.7843 95.7634 29.1743 95.7741 28.4681H98.2119Z" fill="#001641"/>
<path d="M84.6074 20.8116H87.1094L91.8888 28.5002H91.9208V20.8116H94.2784V32.2722H91.7604L86.9971 24.5997H86.965V32.2722H84.6074V20.8116Z" fill="#001641"/>
<path d="M74.1469 26.5901C74.1469 27.0716 74.2004 27.5425 74.3073 28.0026C74.4249 28.452 74.6067 28.8587 74.8526 29.2225C75.0985 29.5863 75.4193 29.8806 75.8149 30.1053C76.2105 30.3193 76.6916 30.4263 77.2583 30.4263C77.825 30.4263 78.3061 30.3193 78.7017 30.1053C79.0973 29.8806 79.4181 29.5863 79.664 29.2225C79.9099 28.8587 80.0864 28.452 80.1933 28.0026C80.3109 27.5425 80.3697 27.0716 80.3697 26.5901C80.3697 26.0872 80.3109 25.6003 80.1933 25.1294C80.0864 24.6586 79.9099 24.2413 79.664 23.8774C79.4181 23.5029 79.0973 23.2086 78.7017 22.9946C78.3061 22.7699 77.825 22.6575 77.2583 22.6575C76.6916 22.6575 76.2105 22.7699 75.8149 22.9946C75.4193 23.2086 75.0985 23.5029 74.8526 23.8774C74.6067 24.2413 74.4249 24.6586 74.3073 25.1294C74.2004 25.6003 74.1469 26.0872 74.1469 26.5901ZM71.6289 26.5901C71.6289 25.734 71.7572 24.9422 72.0138 24.2145C72.2704 23.4762 72.6393 22.8341 73.1205 22.2884C73.6016 21.7426 74.1897 21.3146 74.8847 21.0043C75.5903 20.6939 76.3815 20.5388 77.2583 20.5388C78.1457 20.5388 78.937 20.6939 79.632 21.0043C80.3269 21.3146 80.915 21.7426 81.3961 22.2884C81.8773 22.8341 82.2462 23.4762 82.5028 24.2145C82.7594 24.9422 82.8877 25.734 82.8877 26.5901C82.8877 27.4248 82.7594 28.2059 82.5028 28.9336C82.2462 29.6505 81.8773 30.2765 81.3961 30.8116C80.915 31.3466 80.3269 31.7693 79.632 32.0796C78.937 32.3792 78.1457 32.5291 77.2583 32.5291C76.3815 32.5291 75.5903 32.3792 74.8847 32.0796C74.1897 31.7693 73.6016 31.3466 73.1205 30.8116C72.6393 30.2765 72.2704 29.6505 72.0138 28.9336C71.7572 28.2059 71.6289 27.4248 71.6289 26.5901Z" fill="#001641"/>
<path d="M67.8726 24.6639C67.8298 24.375 67.7336 24.1128 67.5839 23.8774C67.4342 23.6313 67.2471 23.4173 67.0225 23.2354C66.798 23.0535 66.5414 22.9144 66.2527 22.818C65.9747 22.711 65.6807 22.6575 65.3706 22.6575C64.8039 22.6575 64.3228 22.7699 63.9272 22.9946C63.5316 23.2086 63.2108 23.5029 62.9649 23.8774C62.719 24.2413 62.5372 24.6586 62.4196 25.1294C62.3127 25.6003 62.2592 26.0872 62.2592 26.5901C62.2592 27.0716 62.3127 27.5425 62.4196 28.0026C62.5372 28.452 62.719 28.8587 62.9649 29.2225C63.2108 29.5863 63.5316 29.8806 63.9272 30.1053C64.3228 30.3193 64.8039 30.4263 65.3706 30.4263C66.1404 30.4263 66.7392 30.1909 67.1669 29.7201C67.6053 29.2493 67.8726 28.6286 67.9688 27.8581H70.4066C70.3424 28.5751 70.1767 29.2225 69.9094 29.8003C69.6421 30.3782 69.2893 30.8704 68.8509 31.2771C68.4125 31.6837 67.8993 31.994 67.3112 32.208C66.7232 32.422 66.0763 32.5291 65.3706 32.5291C64.4939 32.5291 63.7026 32.3792 62.997 32.0796C62.302 31.7693 61.7139 31.3466 61.2328 30.8116C60.7516 30.2765 60.3827 29.6505 60.1261 28.9336C59.8695 28.2059 59.7412 27.4248 59.7412 26.5901C59.7412 25.734 59.8695 24.9422 60.1261 24.2145C60.3827 23.4761 60.7516 22.8341 61.2328 22.2884C61.7139 21.7426 62.302 21.3146 62.997 21.0043C63.7026 20.6939 64.4939 20.5388 65.3706 20.5388C66.0014 20.5388 66.5949 20.6297 67.1508 20.8116C67.7175 20.9936 68.2201 21.2611 68.6584 21.6142C69.1075 21.9566 69.4764 22.3847 69.7651 22.8983C70.0538 23.4119 70.2355 24.0005 70.3104 24.6639H67.8726Z" fill="#001641"/>
<path d="M159.422 41.0911H160.185V41.8741H160.204C160.541 41.2757 161.076 40.9766 161.807 40.9766C162.131 40.9766 162.402 41.0211 162.618 41.1102C162.834 41.1994 163.009 41.3235 163.143 41.4826C163.276 41.6418 163.368 41.8327 163.419 42.0555C163.477 42.2719 163.505 42.5138 163.505 42.7812V46.0276H162.694V42.6857C162.694 42.3802 162.605 42.1383 162.427 41.96C162.249 41.7818 162.004 41.6927 161.692 41.6927C161.444 41.6927 161.228 41.7309 161.044 41.8073C160.866 41.8836 160.716 41.9919 160.595 42.1319C160.475 42.2719 160.382 42.4374 160.319 42.6284C160.261 42.813 160.233 43.0167 160.233 43.2395V46.0276H159.422V41.0911Z" fill="#001641" fill-opacity="0.46"/>
<path d="M154.535 43.5641C154.535 43.8633 154.574 44.1307 154.65 44.3662C154.733 44.5953 154.844 44.7895 154.984 44.9486C155.124 45.1014 155.286 45.2192 155.47 45.3019C155.661 45.3847 155.862 45.426 156.071 45.426C156.281 45.426 156.478 45.3847 156.663 45.3019C156.854 45.2192 157.019 45.1014 157.159 44.9486C157.299 44.7895 157.407 44.5953 157.483 44.3662C157.566 44.1307 157.607 43.8633 157.607 43.5641C157.607 43.265 157.566 43.0008 157.483 42.7716C157.407 42.5361 157.299 42.3388 157.159 42.1796C157.019 42.0205 156.854 41.8996 156.663 41.8168C156.478 41.7341 156.281 41.6927 156.071 41.6927C155.862 41.6927 155.661 41.7341 155.47 41.8168C155.286 41.8996 155.124 42.0205 154.984 42.1796C154.844 42.3388 154.733 42.5361 154.65 42.7716C154.574 43.0008 154.535 43.265 154.535 43.5641ZM153.677 43.5641C153.677 43.2013 153.728 42.8639 153.829 42.552C153.931 42.2337 154.084 41.96 154.287 41.7309C154.491 41.4954 154.742 41.3108 155.041 41.1771C155.34 41.0434 155.683 40.9766 156.071 40.9766C156.466 40.9766 156.809 41.0434 157.102 41.1771C157.401 41.3108 157.652 41.4954 157.855 41.7309C158.059 41.96 158.212 42.2337 158.313 42.552C158.415 42.8639 158.466 43.2013 158.466 43.5641C158.466 43.927 158.415 44.2643 158.313 44.5762C158.212 44.8881 158.059 45.1619 157.855 45.3974C157.652 45.6265 157.401 45.808 157.102 45.9416C156.809 46.0689 156.466 46.1326 156.071 46.1326C155.683 46.1326 155.34 46.0689 155.041 45.9416C154.742 45.808 154.491 45.6265 154.287 45.3974C154.084 45.1619 153.931 44.8881 153.829 44.5762C153.728 44.2643 153.677 43.927 153.677 43.5641Z" fill="#001641" fill-opacity="0.46"/>
<path d="M152.687 40.2032H151.875V39.2102H152.687V40.2032ZM151.875 41.0912H152.687V46.0276H151.875V41.0912Z" fill="#001641" fill-opacity="0.46"/>
<path d="M149.946 41.0912H150.929V41.8073H149.946V44.8723C149.946 44.9677 149.953 45.0441 149.965 45.1014C149.985 45.1587 150.016 45.2033 150.061 45.2351C150.105 45.2669 150.166 45.2892 150.242 45.3019C150.325 45.3083 150.43 45.3115 150.557 45.3115H150.929V46.0276H150.309C150.099 46.0276 149.918 46.0149 149.765 45.9894C149.619 45.9576 149.498 45.9035 149.403 45.8271C149.314 45.7507 149.247 45.6425 149.202 45.5024C149.158 45.3624 149.135 45.1778 149.135 44.9486V41.8073H148.296V41.0912H149.135V39.6112H149.946V41.0912Z" fill="#001641" fill-opacity="0.46"/>
<path d="M147.602 46.0276H146.839V45.2446H146.82C146.648 45.5502 146.428 45.7761 146.161 45.9225C145.894 46.0626 145.579 46.1326 145.217 46.1326C144.892 46.1326 144.622 46.0912 144.406 46.0085C144.19 45.9194 144.015 45.7952 143.881 45.6361C143.748 45.477 143.652 45.2892 143.595 45.0728C143.544 44.85 143.519 44.6049 143.519 44.3375V41.0912H144.329V44.433C144.329 44.7386 144.419 44.9805 144.597 45.1587C144.775 45.3369 145.02 45.426 145.331 45.426C145.579 45.426 145.792 45.3878 145.97 45.3115C146.155 45.2351 146.308 45.1269 146.428 44.9868C146.549 44.8468 146.638 44.6845 146.696 44.4999C146.759 44.3089 146.791 44.102 146.791 43.8792V41.0912H147.602V46.0276Z" fill="#001641" fill-opacity="0.46"/>
<path d="M141.45 39.2102H142.262V46.0276H141.45V39.2102Z" fill="#001641" fill-opacity="0.46"/>
<path d="M136.517 43.5641C136.517 43.8633 136.555 44.1307 136.631 44.3662C136.714 44.5953 136.825 44.7895 136.965 44.9486C137.105 45.1014 137.267 45.2192 137.452 45.3019C137.643 45.3847 137.843 45.426 138.053 45.426C138.263 45.426 138.46 45.3847 138.644 45.3019C138.835 45.2192 139.001 45.1014 139.14 44.9486C139.28 44.7895 139.389 44.5953 139.465 44.3662C139.548 44.1307 139.589 43.8633 139.589 43.5641C139.589 43.265 139.548 43.0008 139.465 42.7716C139.389 42.5361 139.28 42.3388 139.14 42.1796C139.001 42.0205 138.835 41.8996 138.644 41.8168C138.46 41.7341 138.263 41.6927 138.053 41.6927C137.843 41.6927 137.643 41.7341 137.452 41.8168C137.267 41.8996 137.105 42.0205 136.965 42.1796C136.825 42.3388 136.714 42.5361 136.631 42.7716C136.555 43.0008 136.517 43.265 136.517 43.5641ZM135.658 43.5641C135.658 43.2013 135.709 42.8639 135.811 42.552C135.913 42.2337 136.065 41.96 136.269 41.7309C136.472 41.4954 136.724 41.3108 137.022 41.1771C137.321 41.0434 137.665 40.9766 138.053 40.9766C138.447 40.9766 138.791 41.0434 139.083 41.1771C139.382 41.3108 139.633 41.4954 139.837 41.7309C140.04 41.96 140.193 42.2337 140.295 42.552C140.397 42.8639 140.447 43.2013 140.447 43.5641C140.447 43.927 140.397 44.2643 140.295 44.5762C140.193 44.8881 140.04 45.1619 139.837 45.3974C139.633 45.6265 139.382 45.808 139.083 45.9416C138.791 46.0689 138.447 46.1326 138.053 46.1326C137.665 46.1326 137.321 46.0689 137.022 45.9416C136.724 45.808 136.472 45.6265 136.269 45.3974C136.065 45.1619 135.913 44.8881 135.811 44.5762C135.709 44.2643 135.658 43.927 135.658 43.5641Z" fill="#001641" fill-opacity="0.46"/>
<path d="M131.651 44.4712C131.657 44.6494 131.698 44.8022 131.775 44.9295C131.851 45.0505 131.95 45.1491 132.071 45.2255C132.198 45.2955 132.338 45.3465 132.49 45.3783C132.649 45.4101 132.812 45.426 132.977 45.426C133.104 45.426 133.238 45.4165 133.378 45.3974C133.518 45.3783 133.645 45.3433 133.759 45.2924C133.88 45.2414 133.979 45.1682 134.055 45.0727C134.131 44.9709 134.169 44.8436 134.169 44.6908C134.169 44.4808 134.09 44.3216 133.931 44.2134C133.772 44.1052 133.572 44.0193 133.33 43.9556C133.095 43.8856 132.837 43.8251 132.557 43.7742C132.277 43.7169 132.016 43.6405 131.775 43.545C131.539 43.4432 131.342 43.3031 131.183 43.1249C131.024 42.9467 130.945 42.6984 130.945 42.3802C130.945 42.1319 130.999 41.9187 131.107 41.7404C131.221 41.5622 131.365 41.419 131.536 41.3108C131.714 41.1962 131.912 41.1134 132.128 41.0625C132.35 41.0052 132.57 40.9766 132.786 40.9766C133.066 40.9766 133.324 41.002 133.559 41.053C133.794 41.0975 134.001 41.1803 134.179 41.3012C134.363 41.4158 134.51 41.5749 134.618 41.7786C134.726 41.9759 134.79 42.2242 134.809 42.5234H133.998C133.985 42.3642 133.944 42.2337 133.874 42.1319C133.804 42.0237 133.715 41.9378 133.607 41.8741C133.498 41.8104 133.378 41.7659 133.244 41.7404C133.117 41.7086 132.986 41.6927 132.853 41.6927C132.732 41.6927 132.608 41.7022 132.481 41.7213C132.36 41.7404 132.249 41.7754 132.147 41.8264C132.045 41.8709 131.962 41.9346 131.899 42.0173C131.835 42.0937 131.803 42.1956 131.803 42.3229C131.803 42.4629 131.851 42.5807 131.947 42.6761C132.048 42.7653 132.176 42.8417 132.328 42.9053C132.481 42.9626 132.653 43.0135 132.843 43.0581C133.034 43.0963 133.225 43.1376 133.416 43.1822C133.619 43.2268 133.816 43.2809 134.007 43.3445C134.204 43.4082 134.376 43.4941 134.522 43.6023C134.675 43.7042 134.796 43.8347 134.885 43.9938C134.98 44.1529 135.028 44.3503 135.028 44.5858C135.028 44.885 134.964 45.1332 134.837 45.3305C134.716 45.5279 134.554 45.687 134.351 45.808C134.154 45.9289 133.928 46.0117 133.673 46.0562C133.425 46.1071 133.177 46.1326 132.929 46.1326C132.656 46.1326 132.395 46.104 132.147 46.0467C131.899 45.9894 131.679 45.8971 131.489 45.7698C131.298 45.6361 131.145 45.4642 131.031 45.2542C130.916 45.0377 130.853 44.7768 130.84 44.4712H131.651Z" fill="#001641" fill-opacity="0.46"/>
<path d="M126.8 43.0867C126.787 42.8958 126.742 42.7143 126.666 42.5425C126.596 42.3706 126.497 42.2242 126.37 42.1033C126.249 41.9759 126.103 41.8773 125.931 41.8073C125.766 41.7309 125.582 41.6927 125.378 41.6927C125.168 41.6927 124.977 41.7309 124.806 41.8073C124.64 41.8773 124.497 41.9759 124.376 42.1033C124.255 42.2306 124.16 42.3802 124.09 42.552C124.02 42.7175 123.979 42.8958 123.966 43.0867H126.8ZM127.582 44.4617C127.474 45.0155 127.235 45.4324 126.866 45.7125C126.497 45.9926 126.033 46.1326 125.473 46.1326C125.079 46.1326 124.736 46.0689 124.443 45.9416C124.157 45.8143 123.915 45.6361 123.718 45.4069C123.521 45.1778 123.371 44.9041 123.27 44.5858C123.174 44.2675 123.12 43.9206 123.107 43.545C123.107 43.1695 123.165 42.8257 123.279 42.5138C123.394 42.2019 123.553 41.9314 123.756 41.7022C123.966 41.4731 124.211 41.2948 124.491 41.1675C124.777 41.0402 125.089 40.9766 125.426 40.9766C125.865 40.9766 126.227 41.0689 126.513 41.2535C126.806 41.4317 127.038 41.6609 127.21 41.9409C127.388 42.221 127.509 42.5266 127.572 42.8576C127.642 43.1886 127.671 43.5037 127.658 43.8028H123.966C123.96 44.0193 123.985 44.2261 124.042 44.4235C124.1 44.6144 124.192 44.7863 124.319 44.9391C124.446 45.0855 124.608 45.2032 124.806 45.2924C125.003 45.3815 125.235 45.426 125.502 45.426C125.846 45.426 126.125 45.3465 126.342 45.1873C126.564 45.0282 126.711 44.7863 126.78 44.4617H127.582Z" fill="#001641" fill-opacity="0.46"/>
<path d="M121.599 42.6761C121.536 42.3642 121.402 42.1224 121.199 41.9505C120.995 41.7786 120.721 41.6927 120.378 41.6927C120.085 41.6927 119.841 41.7468 119.643 41.855C119.446 41.9632 119.287 42.1064 119.166 42.2847C119.052 42.4629 118.969 42.6698 118.918 42.9053C118.867 43.1345 118.842 43.3732 118.842 43.6214C118.842 43.8506 118.867 44.0734 118.918 44.2898C118.976 44.5062 119.061 44.7004 119.176 44.8722C119.29 45.0377 119.44 45.1714 119.624 45.2733C119.809 45.3751 120.028 45.426 120.283 45.426C120.683 45.426 120.995 45.321 121.218 45.1109C121.447 44.9009 121.586 44.6049 121.637 44.223H122.467C122.378 44.834 122.149 45.3051 121.78 45.6361C121.418 45.9671 120.922 46.1326 120.292 46.1326C119.917 46.1326 119.583 46.0721 119.29 45.9512C119.004 45.8302 118.763 45.6584 118.565 45.4356C118.375 45.2128 118.228 44.9486 118.127 44.6431C118.031 44.3312 117.983 43.9906 117.983 43.6214C117.983 43.2522 118.031 42.9085 118.127 42.5902C118.222 42.2656 118.365 41.9855 118.556 41.75C118.753 41.5081 118.998 41.3203 119.29 41.1866C119.583 41.0466 119.923 40.9766 120.311 40.9766C120.591 40.9766 120.852 41.0116 121.094 41.0816C121.342 41.1453 121.558 41.2471 121.742 41.3871C121.933 41.5272 122.089 41.7054 122.21 41.9218C122.331 42.1319 122.407 42.3833 122.439 42.6761H121.599Z" fill="#001641" fill-opacity="0.46"/>
<path d="M115.213 41.0911H115.976V42.1319H115.995C116.192 41.7309 116.434 41.4349 116.72 41.2439C117.006 41.053 117.369 40.9638 117.808 40.9766V41.8359C117.484 41.8359 117.207 41.8805 116.978 41.9696C116.749 42.0587 116.564 42.1892 116.425 42.3611C116.285 42.5329 116.183 42.743 116.119 42.9912C116.056 43.2331 116.024 43.5132 116.024 43.8315V46.0276H115.213V41.0911Z" fill="#001641" fill-opacity="0.46"/>
<path d="M114.023 46.0276H113.26V45.2446H113.24C113.069 45.5502 112.849 45.7761 112.582 45.9225C112.315 46.0626 112 46.1326 111.638 46.1326C111.313 46.1326 111.043 46.0912 110.827 46.0085C110.61 45.9194 110.436 45.7952 110.302 45.6361C110.168 45.477 110.073 45.2892 110.016 45.0728C109.965 44.85 109.939 44.6049 109.939 44.3375V41.0912H110.75V44.433C110.75 44.7386 110.839 44.9805 111.018 45.1587C111.196 45.3369 111.44 45.426 111.752 45.426C112 45.426 112.213 45.3878 112.391 45.3115C112.576 45.2351 112.728 45.1269 112.849 44.9868C112.97 44.8468 113.059 44.6845 113.116 44.4999C113.18 44.3089 113.212 44.102 113.212 43.8792V41.0912H114.023V46.0276Z" fill="#001641" fill-opacity="0.46"/>
<path d="M105.053 43.5641C105.053 43.8633 105.091 44.1307 105.167 44.3662C105.25 44.5953 105.361 44.7895 105.501 44.9486C105.641 45.1014 105.803 45.2192 105.988 45.3019C106.179 45.3847 106.379 45.426 106.589 45.426C106.799 45.426 106.996 45.3847 107.18 45.3019C107.371 45.2192 107.537 45.1014 107.677 44.9486C107.817 44.7895 107.925 44.5953 108.001 44.3662C108.084 44.1307 108.125 43.8633 108.125 43.5641C108.125 43.265 108.084 43.0008 108.001 42.7716C107.925 42.5361 107.817 42.3388 107.677 42.1796C107.537 42.0205 107.371 41.8996 107.18 41.8168C106.996 41.7341 106.799 41.6927 106.589 41.6927C106.379 41.6927 106.179 41.7341 105.988 41.8168C105.803 41.8996 105.641 42.0205 105.501 42.1796C105.361 42.3388 105.25 42.5361 105.167 42.7716C105.091 43.0008 105.053 43.265 105.053 43.5641ZM104.194 43.5641C104.194 43.2013 104.245 42.8639 104.347 42.552C104.449 42.2337 104.601 41.96 104.805 41.7309C105.008 41.4954 105.26 41.3108 105.559 41.1771C105.858 41.0434 106.201 40.9766 106.589 40.9766C106.983 40.9766 107.327 41.0434 107.619 41.1771C107.918 41.3108 108.17 41.4954 108.373 41.7309C108.577 41.96 108.729 42.2337 108.831 42.552C108.933 42.8639 108.984 43.2013 108.984 43.5641C108.984 43.927 108.933 44.2643 108.831 44.5762C108.729 44.8881 108.577 45.1619 108.373 45.3974C108.17 45.6265 107.918 45.808 107.619 45.9416C107.327 46.0689 106.983 46.1326 106.589 46.1326C106.201 46.1326 105.858 46.0689 105.559 45.9416C105.26 45.808 105.008 45.6265 104.805 45.3974C104.601 45.1619 104.449 44.8881 104.347 44.5762C104.245 44.2643 104.194 43.927 104.194 43.5641Z" fill="#001641" fill-opacity="0.46"/>
<path d="M100.188 44.4712C100.194 44.6494 100.236 44.8022 100.312 44.9295C100.388 45.0505 100.487 45.1491 100.608 45.2255C100.735 45.2955 100.875 45.3465 101.027 45.3783C101.186 45.4101 101.349 45.426 101.514 45.426C101.641 45.426 101.775 45.4165 101.915 45.3974C102.055 45.3783 102.182 45.3433 102.296 45.2924C102.417 45.2414 102.516 45.1682 102.592 45.0727C102.668 44.9709 102.707 44.8436 102.707 44.6908C102.707 44.4808 102.627 44.3216 102.468 44.2134C102.309 44.1052 102.109 44.0193 101.867 43.9556C101.632 43.8856 101.374 43.8251 101.094 43.7742C100.814 43.7169 100.554 43.6405 100.312 43.545C100.077 43.4432 99.8794 43.3031 99.7204 43.1249C99.5614 42.9467 99.4819 42.6984 99.4819 42.3802C99.4819 42.1319 99.536 41.9187 99.6441 41.7404C99.7586 41.5622 99.9017 41.419 100.073 41.3108C100.251 41.1962 100.449 41.1134 100.665 41.0625C100.888 41.0052 101.107 40.9766 101.323 40.9766C101.603 40.9766 101.861 41.002 102.096 41.053C102.331 41.0975 102.538 41.1803 102.716 41.3012C102.901 41.4158 103.047 41.5749 103.155 41.7786C103.263 41.9759 103.327 42.2242 103.346 42.5234H102.535C102.522 42.3642 102.481 42.2337 102.411 42.1319C102.341 42.0237 102.252 41.9378 102.144 41.8741C102.036 41.8104 101.915 41.7659 101.781 41.7404C101.654 41.7086 101.524 41.6927 101.39 41.6927C101.269 41.6927 101.145 41.7022 101.018 41.7213C100.897 41.7404 100.786 41.7754 100.684 41.8264C100.582 41.8709 100.5 41.9346 100.436 42.0173C100.372 42.0937 100.341 42.1956 100.341 42.3229C100.341 42.4629 100.388 42.5807 100.484 42.6761C100.585 42.7653 100.713 42.8417 100.865 42.9053C101.018 42.9626 101.19 43.0135 101.38 43.0581C101.571 43.0963 101.762 43.1376 101.953 43.1822C102.156 43.2268 102.354 43.2809 102.544 43.3445C102.742 43.4082 102.913 43.4941 103.06 43.6023C103.212 43.7042 103.333 43.8347 103.422 43.9938C103.517 44.1529 103.565 44.3503 103.565 44.5858C103.565 44.885 103.502 45.1332 103.374 45.3305C103.254 45.5279 103.091 45.687 102.888 45.808C102.691 45.9289 102.465 46.0117 102.21 46.0562C101.962 46.1071 101.714 46.1326 101.466 46.1326C101.193 46.1326 100.932 46.104 100.684 46.0467C100.436 45.9894 100.217 45.8971 100.026 45.7698C99.8349 45.6361 99.6822 45.4642 99.5678 45.2542C99.4533 45.0377 99.3897 44.7768 99.377 44.4712H100.188Z" fill="#001641" fill-opacity="0.46"/>
<path d="M97.9919 43.0867C97.9792 42.8958 97.9347 42.7143 97.8584 42.5425C97.7884 42.3706 97.6898 42.2242 97.5626 42.1033C97.4418 41.9759 97.2955 41.8773 97.1238 41.8073C96.9584 41.7309 96.774 41.6927 96.5704 41.6927C96.3605 41.6927 96.1697 41.7309 95.998 41.8073C95.8326 41.8773 95.6895 41.9759 95.5687 42.1033C95.4478 42.2306 95.3524 42.3802 95.2825 42.552C95.2125 42.7175 95.1712 42.8958 95.1584 43.0867H97.9919ZM98.7743 44.4617C98.6661 45.0155 98.4276 45.4324 98.0587 45.7125C97.6898 45.9926 97.2255 46.1326 96.6658 46.1326C96.2715 46.1326 95.928 46.0689 95.6355 45.9416C95.3492 45.8143 95.1076 45.6361 94.9104 45.4069C94.7132 45.1778 94.5638 44.9041 94.462 44.5858C94.3666 44.2675 94.3125 43.9206 94.2998 43.545C94.2998 43.1695 94.357 42.8257 94.4715 42.5138C94.586 42.2019 94.745 41.9314 94.9486 41.7022C95.1584 41.4731 95.4033 41.2948 95.6832 41.1675C95.9694 41.0402 96.281 40.9766 96.6181 40.9766C97.057 40.9766 97.4195 41.0689 97.7057 41.2535C97.9983 41.4317 98.2305 41.6609 98.4022 41.9409C98.5803 42.221 98.7011 42.5266 98.7647 42.8576C98.8347 43.1886 98.8633 43.5037 98.8506 43.8028H95.1584C95.1521 44.0193 95.1775 44.2261 95.2348 44.4235C95.292 44.6144 95.3842 44.7863 95.5114 44.9391C95.6386 45.0855 95.8008 45.2032 95.998 45.2924C96.1952 45.3815 96.4273 45.426 96.6944 45.426C97.0379 45.426 97.3178 45.3465 97.534 45.1873C97.7566 45.0282 97.9029 44.7863 97.9729 44.4617H98.7743Z" fill="#001641" fill-opacity="0.46"/>
<path d="M91.5303 41.0911H92.2935V42.1319H92.3126C92.5098 41.7309 92.7514 41.4349 93.0377 41.2439C93.3239 41.053 93.6864 40.9638 94.1253 40.9766V41.8359C93.8009 41.8359 93.5242 41.8805 93.2952 41.9696C93.0663 42.0587 92.8818 42.1892 92.7419 42.3611C92.602 42.5329 92.5002 42.743 92.4366 42.9912C92.373 43.2331 92.3412 43.5132 92.3412 43.8315V46.0276H91.5303V41.0911Z" fill="#001641" fill-opacity="0.46"/>
<path d="M83.6016 41.0911H84.3648V41.8741H84.3839C84.721 41.2757 85.2552 40.9766 85.9867 40.9766C86.311 40.9766 86.5814 41.0211 86.7976 41.1102C87.0138 41.1994 87.1888 41.3235 87.3223 41.4826C87.4559 41.6418 87.5481 41.8327 87.599 42.0555C87.6562 42.2719 87.6849 42.5138 87.6849 42.7812V46.0276H86.8739V42.6857C86.8739 42.3802 86.7849 42.1383 86.6068 41.96C86.4287 41.7818 86.1838 41.6927 85.8722 41.6927C85.6241 41.6927 85.4079 41.7309 85.2234 41.8073C85.0453 41.8836 84.8959 41.9919 84.775 42.1319C84.6542 42.2719 84.562 42.4374 84.4984 42.6284C84.4411 42.813 84.4125 43.0167 84.4125 43.2395V46.0276H83.6016V41.0911Z" fill="#001641" fill-opacity="0.46"/>
<path d="M82.8476 46.0085C82.7077 46.0912 82.5137 46.1326 82.2656 46.1326C82.0557 46.1326 81.8872 46.0753 81.76 45.9607C81.6391 45.8398 81.5787 45.6456 81.5787 45.3783C81.3561 45.6456 81.0953 45.8398 80.7964 45.9607C80.5038 46.0753 80.1858 46.1326 79.8423 46.1326C79.6197 46.1326 79.4067 46.1071 79.2031 46.0562C79.006 46.0053 78.8342 45.9257 78.688 45.8175C78.5417 45.7093 78.424 45.5693 78.335 45.3974C78.2523 45.2192 78.2109 45.0059 78.2109 44.7577C78.2109 44.4776 78.2586 44.2484 78.354 44.0702C78.4494 43.892 78.5735 43.7487 78.7261 43.6405C78.8851 43.5259 79.0632 43.44 79.2604 43.3827C79.4639 43.3254 79.6706 43.2777 79.8805 43.2395C80.1031 43.1949 80.313 43.1631 80.5102 43.144C80.7137 43.1185 80.8918 43.0867 81.0444 43.0485C81.1971 43.004 81.3179 42.9435 81.407 42.8671C81.496 42.7844 81.5405 42.6666 81.5405 42.5138C81.5405 42.3356 81.5056 42.1924 81.4356 42.0842C81.372 41.9759 81.2861 41.8932 81.178 41.8359C81.0762 41.7786 80.9586 41.7404 80.825 41.7213C80.6978 41.7022 80.5706 41.6927 80.4434 41.6927C80.0999 41.6927 79.8137 41.7595 79.5848 41.8932C79.3558 42.0205 79.2318 42.2656 79.2127 42.6284H78.4017C78.4145 42.3229 78.4781 42.0651 78.5926 41.855C78.707 41.6449 78.8597 41.4763 79.0505 41.349C79.2413 41.2153 79.4576 41.1198 79.6992 41.0625C79.9473 41.0052 80.2112 40.9766 80.4911 40.9766C80.7137 40.9766 80.9331 40.9925 81.1494 41.0243C81.372 41.0561 81.5723 41.123 81.7504 41.2248C81.9285 41.3203 82.0716 41.4572 82.1798 41.6354C82.2879 41.8136 82.3419 42.046 82.3419 42.3324V44.8722C82.3419 45.0632 82.3515 45.2032 82.3706 45.2924C82.396 45.3815 82.4723 45.426 82.5995 45.426C82.6695 45.426 82.7522 45.4101 82.8476 45.3783V46.0085ZM81.531 43.4782C81.4292 43.5546 81.2957 43.6119 81.1303 43.6501C80.9649 43.6819 80.79 43.7105 80.6056 43.736C80.4275 43.7551 80.2462 43.7806 80.0618 43.8124C79.8773 43.8378 79.712 43.8824 79.5657 43.9461C79.4194 44.0097 79.2985 44.102 79.2031 44.223C79.1141 44.3375 79.0696 44.4967 79.0696 44.7004C79.0696 44.834 79.095 44.9486 79.1459 45.0441C79.2031 45.1332 79.2731 45.2064 79.3558 45.2637C79.4448 45.321 79.5466 45.3624 79.6611 45.3878C79.7756 45.4133 79.8964 45.426 80.0236 45.426C80.2907 45.426 80.5197 45.391 80.7105 45.321C80.9013 45.2446 81.0572 45.1523 81.178 45.0441C81.2989 44.9295 81.3879 44.8086 81.4451 44.6813C81.5024 44.5476 81.531 44.4235 81.531 44.3089V43.4782Z" fill="#001641" fill-opacity="0.46"/>
<path d="M70.3418 41.0911H71.105V41.8168H71.1241C71.493 41.2567 72.0241 40.9766 72.7174 40.9766C73.0227 40.9766 73.2993 41.0402 73.5474 41.1675C73.7954 41.2948 73.9703 41.5113 74.0721 41.8168C74.2375 41.5495 74.4537 41.3426 74.7208 41.1962C74.9943 41.0498 75.2933 40.9766 75.6176 40.9766C75.8657 40.9766 76.0883 41.0052 76.2855 41.0625C76.489 41.1134 76.6607 41.1962 76.8007 41.3108C76.9469 41.4253 77.0582 41.5749 77.1346 41.7595C77.2173 41.9378 77.2586 42.1542 77.2586 42.4088V46.0276H76.4477V42.7907C76.4477 42.638 76.4349 42.4947 76.4095 42.3611C76.3841 42.2274 76.3364 42.1128 76.2664 42.0173C76.1964 41.9155 76.0978 41.8359 75.9706 41.7786C75.8498 41.7213 75.6908 41.6927 75.4936 41.6927C75.0929 41.6927 74.7781 41.8073 74.5491 42.0364C74.3201 42.2656 74.2057 42.5711 74.2057 42.953V46.0276H73.3947V42.7907C73.3947 42.6316 73.3788 42.4852 73.347 42.3515C73.3216 42.2178 73.2739 42.1033 73.2039 42.0078C73.134 41.9059 73.0386 41.8295 72.9177 41.7786C72.8032 41.7213 72.6538 41.6927 72.4693 41.6927C72.234 41.6927 72.0304 41.7404 71.8587 41.8359C71.6934 41.9314 71.5566 42.046 71.4485 42.1796C71.3467 42.3133 71.2704 42.4534 71.2195 42.5998C71.175 42.7398 71.1527 42.8576 71.1527 42.953V46.0276H70.3418V41.0911Z" fill="#001641" fill-opacity="0.46"/>
<path d="M69.1263 46.0276H68.363V45.2446H68.344C68.1722 45.5502 67.9528 45.7761 67.6857 45.9225C67.4185 46.0626 67.1037 46.1326 66.7412 46.1326C66.4168 46.1326 66.1465 46.0912 65.9302 46.0085C65.714 45.9194 65.5391 45.7952 65.4055 45.6361C65.2719 45.477 65.1765 45.2892 65.1193 45.0728C65.0684 44.85 65.043 44.6049 65.043 44.3375V41.0912H65.8539V44.433C65.8539 44.7386 65.9429 44.9805 66.121 45.1587C66.2991 45.3369 66.544 45.426 66.8556 45.426C67.1037 45.426 67.3168 45.3878 67.4949 45.3115C67.6793 45.2351 67.832 45.1269 67.9528 44.9868C68.0736 44.8468 68.1627 44.6845 68.2199 44.4999C68.2835 44.3089 68.3153 44.102 68.3153 43.8792V41.0912H69.1263V46.0276Z" fill="#001641" fill-opacity="0.46"/>
<path d="M59.7412 39.2102H60.5521V41.8168H60.5712C60.6348 41.664 60.7239 41.5367 60.8384 41.4349C60.9528 41.3267 61.08 41.2407 61.22 41.1771C61.3663 41.1071 61.5157 41.0561 61.6684 41.0243C61.8274 40.9925 61.98 40.9766 62.1263 40.9766C62.4507 40.9766 62.721 41.0211 62.9372 41.1103C63.1535 41.1994 63.3284 41.3235 63.462 41.4826C63.5955 41.6418 63.6878 41.8327 63.7386 42.0555C63.7959 42.272 63.8245 42.5138 63.8245 42.7812V46.0276H63.0136V42.6857C63.0136 42.3802 62.9245 42.1383 62.7464 41.96C62.5684 41.7818 62.3235 41.6927 62.0118 41.6927C61.7638 41.6927 61.5475 41.7309 61.3631 41.8073C61.185 41.8837 61.0355 41.9919 60.9147 42.1319C60.7938 42.272 60.7016 42.4375 60.638 42.6284C60.5808 42.813 60.5521 43.0167 60.5521 43.2395V46.0276H59.7412V39.2102Z" fill="#001641" fill-opacity="0.46"/>
<path d="M165.622 44.4712C165.629 44.6494 165.67 44.8022 165.746 44.9295C165.823 45.0505 165.921 45.1491 166.042 45.2255C166.169 45.2955 166.309 45.3465 166.462 45.3783C166.621 45.4101 166.783 45.426 166.949 45.426C167.076 45.426 167.209 45.4165 167.349 45.3974C167.489 45.3783 167.616 45.3433 167.731 45.2924C167.852 45.2414 167.95 45.1682 168.027 45.0727C168.103 44.9709 168.141 44.8436 168.141 44.6908C168.141 44.4808 168.062 44.3216 167.903 44.2134C167.744 44.1052 167.543 44.0193 167.302 43.9556C167.066 43.8856 166.809 43.8251 166.529 43.7742C166.249 43.7169 165.988 43.6405 165.746 43.545C165.511 43.4432 165.314 43.3031 165.155 43.1249C164.996 42.9467 164.916 42.6984 164.916 42.3802C164.916 42.1319 164.971 41.9187 165.079 41.7404C165.193 41.5622 165.336 41.419 165.508 41.3108C165.686 41.1962 165.883 41.1134 166.099 41.0625C166.322 41.0052 166.542 40.9766 166.758 40.9766C167.038 40.9766 167.295 41.002 167.531 41.053C167.766 41.0975 167.973 41.1803 168.151 41.3012C168.335 41.4158 168.481 41.5749 168.59 41.7786C168.698 41.9759 168.761 42.2242 168.78 42.5234H167.969C167.957 42.3642 167.915 42.2337 167.845 42.1319C167.775 42.0237 167.686 41.9378 167.578 41.8741C167.47 41.8104 167.349 41.7659 167.216 41.7404C167.088 41.7086 166.958 41.6927 166.825 41.6927C166.704 41.6927 166.58 41.7022 166.452 41.7213C166.332 41.7404 166.22 41.7754 166.119 41.8264C166.017 41.8709 165.934 41.9346 165.871 42.0173C165.807 42.0937 165.775 42.1956 165.775 42.3229C165.775 42.4629 165.823 42.5807 165.918 42.6761C166.02 42.7653 166.147 42.8417 166.3 42.9053C166.452 42.9626 166.624 43.0135 166.815 43.0581C167.006 43.0963 167.197 43.1376 167.387 43.1822C167.591 43.2268 167.788 43.2809 167.979 43.3445C168.176 43.4082 168.348 43.4941 168.494 43.6023C168.647 43.7042 168.768 43.8347 168.857 43.9938C168.952 44.1529 169 44.3503 169 44.5858C169 44.885 168.936 45.1332 168.809 45.3305C168.688 45.5279 168.526 45.687 168.322 45.808C168.125 45.9289 167.899 46.0117 167.645 46.0562C167.397 46.1071 167.149 46.1326 166.901 46.1326C166.627 46.1326 166.367 46.104 166.119 46.0467C165.871 45.9894 165.651 45.8971 165.46 45.7698C165.269 45.6361 165.117 45.4642 165.002 45.2542C164.888 45.0377 164.824 44.7768 164.812 44.4712H165.622Z" fill="#001641" fill-opacity="0.46"/>
</svg>
