<svg width="151" height="150" viewBox="0 0 151 150" fill="none" xmlns="http://www.w3.org/2000/svg">
<g filter="url(#filter0_d_124_668)">
<rect x="51.5" y="41" width="48" height="48" rx="12" fill="#4C79E5" shape-rendering="crispEdges"/>
<rect x="50" y="39.5" width="51" height="51" rx="13.5" stroke="white" stroke-opacity="0.2" stroke-width="3" shape-rendering="crispEdges"/>
<path d="M72.0007 63.6668C72.0007 64.7276 72.4221 65.745 73.1722 66.4952C73.9224 67.2453 74.9398 67.6668 76.0007 67.6668C77.0615 67.6668 78.0789 67.2453 78.8291 66.4952C79.5792 65.745 80.0007 64.7276 80.0007 63.6668C80.0007 62.6059 79.5792 61.5885 78.8291 60.8383C78.0789 60.0882 77.0615 59.6668 76.0007 59.6668C74.9398 59.6668 73.9224 60.0882 73.1722 60.8383C72.4221 61.5885 72.0007 62.6059 72.0007 63.6668Z" stroke="white" stroke-width="2" stroke-linecap="round" stroke-linejoin="round"/>
<path d="M83.5433 71.2094L77.886 76.8668C77.386 77.3663 76.7081 77.6469 76.0013 77.6469C75.2945 77.6469 74.6167 77.3663 74.1167 76.8668L68.458 71.2094C66.9663 69.7176 65.9504 67.817 65.5389 65.7479C65.1274 63.6788 65.3386 61.5341 66.146 59.5851C66.9533 57.636 68.3205 55.9702 70.0746 54.7981C71.8287 53.6261 73.891 53.0005 76.0007 53.0005C78.1103 53.0005 80.1726 53.6261 81.9267 54.7981C83.6808 55.9702 85.048 57.636 85.8553 59.5851C86.6627 61.5341 86.8739 63.6788 86.4624 65.7479C86.0509 67.817 85.035 69.7176 83.5433 71.2094Z" stroke="white" stroke-width="2" stroke-linecap="round" stroke-linejoin="round"/>
</g>
<defs>
<filter id="filter0_d_124_668" x="0.5" y="0" width="150" height="150" filterUnits="userSpaceOnUse" color-interpolation-filters="sRGB">
<feFlood flood-opacity="0" result="BackgroundImageFix"/>
<feColorMatrix in="SourceAlpha" type="matrix" values="0 0 0 0 0 0 0 0 0 0 0 0 0 0 0 0 0 0 127 0" result="hardAlpha"/>
<feOffset dy="10"/>
<feGaussianBlur stdDeviation="24"/>
<feComposite in2="hardAlpha" operator="out"/>
<feColorMatrix type="matrix" values="0 0 0 0 0.298039 0 0 0 0 0.47451 0 0 0 0 0.898039 0 0 0 0.18 0"/>
<feBlend mode="normal" in2="BackgroundImageFix" result="effect1_dropShadow_124_668"/>
<feBlend mode="normal" in="SourceGraphic" in2="effect1_dropShadow_124_668" result="shape"/>
</filter>
</defs>
</svg>
