<svg width="151" height="150" viewBox="0 0 151 150" fill="none" xmlns="http://www.w3.org/2000/svg">
<g filter="url(#filter0_d_66_4995)">
<rect x="51.5" y="41" width="48" height="48" rx="12" fill="#4C79E5" shape-rendering="crispEdges"/>
<rect x="50" y="39.5" width="51" height="51" rx="13.5" stroke="white" stroke-opacity="0.2" stroke-width="3" shape-rendering="crispEdges"/>
<path d="M63.5 58.3334C63.5 57.6262 63.781 56.9479 64.281 56.4478C64.7811 55.9477 65.4594 55.6667 66.1667 55.6667H84.8333C85.5406 55.6667 86.2189 55.9477 86.719 56.4478C87.219 56.9479 87.5 57.6262 87.5 58.3334M63.5 58.3334V71.6667C63.5 72.374 63.781 73.0523 64.281 73.5524C64.7811 74.0525 65.4594 74.3334 66.1667 74.3334H84.8333C85.5406 74.3334 86.2189 74.0525 86.719 73.5524C87.219 73.0523 87.5 72.374 87.5 71.6667V58.3334M63.5 58.3334L75.5 66.3334L87.5 58.3334" stroke="white" stroke-width="2" stroke-linecap="round" stroke-linejoin="round"/>
</g>
<defs>
<filter id="filter0_d_66_4995" x="0.5" y="0" width="150" height="150" filterUnits="userSpaceOnUse" color-interpolation-filters="sRGB">
<feFlood flood-opacity="0" result="BackgroundImageFix"/>
<feColorMatrix in="SourceAlpha" type="matrix" values="0 0 0 0 0 0 0 0 0 0 0 0 0 0 0 0 0 0 127 0" result="hardAlpha"/>
<feOffset dy="10"/>
<feGaussianBlur stdDeviation="24"/>
<feComposite in2="hardAlpha" operator="out"/>
<feColorMatrix type="matrix" values="0 0 0 0 0.298039 0 0 0 0 0.47451 0 0 0 0 0.898039 0 0 0 0.18 0"/>
<feBlend mode="normal" in2="BackgroundImageFix" result="effect1_dropShadow_66_4995"/>
<feBlend mode="normal" in="SourceGraphic" in2="effect1_dropShadow_66_4995" result="shape"/>
</filter>
</defs>
</svg>
