<svg width="151" height="150" viewBox="0 0 151 150" fill="none" xmlns="http://www.w3.org/2000/svg">
<g filter="url(#filter0_d_66_4983)">
<rect x="51.5" y="41" width="48" height="48" rx="12" fill="#4C79E5" shape-rendering="crispEdges"/>
<rect x="50" y="39.5" width="51" height="51" rx="13.5" stroke="white" stroke-opacity="0.2" stroke-width="3" shape-rendering="crispEdges"/>
<path d="M66.1667 54.3333H71.5L74.1667 60.9999L70.8333 62.9999C72.2613 65.8953 74.6046 68.2386 77.5 69.6666L79.5 66.3333L86.1667 68.9999V74.3333C86.1667 75.0405 85.8857 75.7188 85.3856 76.2189C84.8855 76.719 84.2072 76.9999 83.5 76.9999C78.299 76.6839 73.3935 74.4752 69.7091 70.7908C66.0247 67.1064 63.8161 62.2009 63.5 56.9999C63.5 56.2927 63.781 55.6144 64.281 55.1143C64.7811 54.6142 65.4594 54.3333 66.1667 54.3333Z" stroke="white" stroke-width="2" stroke-linecap="round" stroke-linejoin="round"/>
</g>
<defs>
<filter id="filter0_d_66_4983" x="0.5" y="0" width="150" height="150" filterUnits="userSpaceOnUse" color-interpolation-filters="sRGB">
<feFlood flood-opacity="0" result="BackgroundImageFix"/>
<feColorMatrix in="SourceAlpha" type="matrix" values="0 0 0 0 0 0 0 0 0 0 0 0 0 0 0 0 0 0 127 0" result="hardAlpha"/>
<feOffset dy="10"/>
<feGaussianBlur stdDeviation="24"/>
<feComposite in2="hardAlpha" operator="out"/>
<feColorMatrix type="matrix" values="0 0 0 0 0.298039 0 0 0 0 0.47451 0 0 0 0 0.898039 0 0 0 0.18 0"/>
<feBlend mode="normal" in2="BackgroundImageFix" result="effect1_dropShadow_66_4983"/>
<feBlend mode="normal" in="SourceGraphic" in2="effect1_dropShadow_66_4983" result="shape"/>
</filter>
</defs>
</svg>
