<svg width="80" height="80" viewBox="0 0 80 80" fill="none" xmlns="http://www.w3.org/2000/svg">
<rect width="80" height="80" rx="16" fill="url(#paint0_linear_124_584)"/>
<path d="M54.9998 43C55.0036 43.6116 54.8178 44.2093 54.4679 44.711C54.118 45.2126 53.6213 45.5935 53.0461 45.8013L43.3748 49.375L39.8123 59.0537C39.6013 59.6269 39.2197 60.1215 38.7187 60.4709C38.2178 60.8203 37.6218 61.0076 37.0111 61.0076C36.4003 61.0076 35.8043 60.8203 35.3034 60.4709C34.8025 60.1215 34.4208 59.6269 34.2098 59.0537L30.6248 49.375L20.9461 45.8125C20.3729 45.6015 19.8783 45.2198 19.5289 44.7189C19.1795 44.218 18.9922 43.622 18.9922 43.0112C18.9922 42.4005 19.1795 41.8045 19.5289 41.3036C19.8783 40.8027 20.3729 40.421 20.9461 40.21L30.6248 36.625L34.1873 26.9462C34.3983 26.3731 34.78 25.8785 35.2809 25.5291C35.7818 25.1797 36.3778 24.9924 36.9886 24.9924C37.5993 24.9924 38.1953 25.1797 38.6962 25.5291C39.1972 25.8785 39.5788 26.3731 39.7898 26.9462L43.3748 36.625L53.0536 40.1875C53.6292 40.3971 54.1256 40.7803 54.4742 41.284C54.8229 41.7878 55.0065 42.3874 54.9998 43ZM44.4998 25H47.4998V28C47.4998 28.3978 47.6578 28.7794 47.9391 29.0607C48.2205 29.342 48.602 29.5 48.9998 29.5C49.3976 29.5 49.7792 29.342 50.0605 29.0607C50.3418 28.7794 50.4998 28.3978 50.4998 28V25H53.4998C53.8976 25 54.2792 24.842 54.5605 24.5607C54.8418 24.2794 54.9998 23.8978 54.9998 23.5C54.9998 23.1022 54.8418 22.7206 54.5605 22.4393C54.2792 22.158 53.8976 22 53.4998 22H50.4998V19C50.4998 18.6022 50.3418 18.2206 50.0605 17.9393C49.7792 17.658 49.3976 17.5 48.9998 17.5C48.602 17.5 48.2205 17.658 47.9391 17.9393C47.6578 18.2206 47.4998 18.6022 47.4998 19V22H44.4998C44.102 22 43.7205 22.158 43.4391 22.4393C43.1578 22.7206 42.9998 23.1022 42.9998 23.5C42.9998 23.8978 43.1578 24.2794 43.4391 24.5607C43.7205 24.842 44.102 25 44.4998 25ZM60.9998 31H59.4998V29.5C59.4998 29.1022 59.3418 28.7206 59.0605 28.4393C58.7792 28.158 58.3976 28 57.9998 28C57.602 28 57.2205 28.158 56.9391 28.4393C56.6578 28.7206 56.4998 29.1022 56.4998 29.5V31H54.9998C54.602 31 54.2205 31.158 53.9391 31.4393C53.6578 31.7206 53.4998 32.1022 53.4998 32.5C53.4998 32.8978 53.6578 33.2794 53.9391 33.5607C54.2205 33.842 54.602 34 54.9998 34H56.4998V35.5C56.4998 35.8978 56.6578 36.2794 56.9391 36.5607C57.2205 36.842 57.602 37 57.9998 37C58.3976 37 58.7792 36.842 59.0605 36.5607C59.3418 36.2794 59.4998 35.8978 59.4998 35.5V34H60.9998C61.3976 34 61.7792 33.842 62.0605 33.5607C62.3418 33.2794 62.4998 32.8978 62.4998 32.5C62.4998 32.1022 62.3418 31.7206 62.0605 31.4393C61.7792 31.158 61.3976 31 60.9998 31Z" fill="white"/>
<defs>
<linearGradient id="paint0_linear_124_584" x1="21.1111" y1="-15.5556" x2="47.7778" y2="94.4444" gradientUnits="userSpaceOnUse">
<stop stop-color="#6F8CC4"/>
<stop offset="1" stop-color="#003193"/>
</linearGradient>
</defs>
</svg>
