<svg width="24" height="27" viewBox="0 0 24 27" fill="none" xmlns="http://www.w3.org/2000/svg">
<path d="M8.00065 11.6668C8.00065 12.7276 8.42208 13.745 9.17222 14.4952C9.92237 15.2453 10.9398 15.6668 12.0007 15.6668C13.0615 15.6668 14.0789 15.2453 14.8291 14.4952C15.5792 13.745 16.0007 12.7276 16.0007 11.6668C16.0007 10.6059 15.5792 9.58849 14.8291 8.83834C14.0789 8.08819 13.0615 7.66677 12.0007 7.66677C10.9398 7.66677 9.92237 8.08819 9.17222 8.83834C8.42208 9.58849 8.00065 10.6059 8.00065 11.6668Z" stroke="white" stroke-width="2" stroke-linecap="round" stroke-linejoin="round"/>
<path d="M19.5433 19.2094L13.886 24.8668C13.386 25.3663 12.7081 25.6469 12.0013 25.6469C11.2945 25.6469 10.6167 25.3663 10.1167 24.8668L4.45799 19.2094C2.96628 17.7176 1.95044 15.817 1.53891 13.7479C1.12737 11.6788 1.33864 9.53412 2.14599 7.58507C2.95334 5.63602 4.32052 3.97015 6.07463 2.79811C7.82874 1.62606 9.89101 1.00049 12.0007 1.00049C14.1103 1.00049 16.1726 1.62606 17.9267 2.79811C19.6808 3.97015 21.048 5.63602 21.8553 7.58507C22.6627 9.53412 22.8739 11.6788 22.4624 13.7479C22.0509 15.817 21.035 17.7176 19.5433 19.2094Z" stroke="white" stroke-width="2" stroke-linecap="round" stroke-linejoin="round"/>
</svg>
